Normalized EMG Linear Envelopes
nRows=32
nColumns=17

endheader
time	        VM	        VL	        RF	       GRA	        TA	   ADDLONG	   SEMIMEM	      BFLH	        GM	        GL	       TFL	   GLUTMAX	   GLUTMED	      PIRI	    OBTINT	        QF	
1.775	  0.072187	  0.112341	  0.512762	  0.452612	  0.483173	  0.112604	  0.115635	  0.109048	  0.019568	  0.036668	  0.360895	  0.041626	  0.105262	  0.239559	  0.504087	  0.040652	
1.7755	  0.072319	  0.112175	  0.514667	  0.448621	  0.480336	  0.111223	  0.114656	  0.108680	  0.019112	  0.036029	  0.359607	  0.042082	  0.106367	  0.238274	  0.496640	  0.040966	
1.776	  0.072456	  0.112015	  0.516593	  0.444636	  0.477478	  0.109869	  0.113673	  0.108313	  0.018672	  0.035405	  0.358329	  0.042543	  0.107484	  0.236988	  0.489287	  0.041297	
1.7765	  0.072598	  0.111861	  0.518540	  0.440655	  0.474599	  0.108541	  0.112686	  0.107946	  0.018248	  0.034797	  0.357062	  0.043010	  0.108614	  0.235700	  0.482029	  0.041645	
1.777	  0.072745	  0.111712	  0.520507	  0.436682	  0.471703	  0.107239	  0.111697	  0.107580	  0.017840	  0.034206	  0.355807	  0.043482	  0.109756	  0.234411	  0.474869	  0.042010	
1.7775	  0.072896	  0.111569	  0.522494	  0.432716	  0.468791	  0.105962	  0.110705	  0.107215	  0.017448	  0.033630	  0.354564	  0.043961	  0.110911	  0.233124	  0.467808	  0.042392	
1.778	  0.073052	  0.111432	  0.524499	  0.428759	  0.465868	  0.104710	  0.109711	  0.106851	  0.017072	  0.033070	  0.353333	  0.044446	  0.112079	  0.231838	  0.460847	  0.042789	
1.7785	  0.073211	  0.111300	  0.526523	  0.424812	  0.462934	  0.103483	  0.108715	  0.106490	  0.016711	  0.032525	  0.352116	  0.044937	  0.113259	  0.230555	  0.453988	  0.043203	
1.779	  0.073375	  0.111173	  0.528563	  0.420875	  0.459994	  0.102280	  0.107718	  0.106131	  0.016365	  0.031996	  0.350912	  0.045433	  0.114451	  0.229276	  0.447233	  0.043632	
1.7795	  0.073543	  0.111052	  0.530620	  0.416949	  0.457050	  0.101101	  0.106721	  0.105775	  0.016034	  0.031481	  0.349722	  0.045935	  0.115656	  0.228001	  0.440583	  0.044077	
1.78	  0.073714	  0.110935	  0.532692	  0.413035	  0.454105	  0.099945	  0.105723	  0.105423	  0.015718	  0.030982	  0.348546	  0.046443	  0.116873	  0.226731	  0.434040	  0.044537	
1.7805	  0.073889	  0.110824	  0.534779	  0.409133	  0.451161	  0.098812	  0.104725	  0.105074	  0.015417	  0.030497	  0.347383	  0.046957	  0.118101	  0.225468	  0.427606	  0.045012	
1.781	  0.074067	  0.110718	  0.536880	  0.405244	  0.448221	  0.097701	  0.103727	  0.104729	  0.015131	  0.030026	  0.346236	  0.047476	  0.119342	  0.224211	  0.421282	  0.045501	
1.7815	  0.074247	  0.110617	  0.538995	  0.401368	  0.445289	  0.096612	  0.102731	  0.104388	  0.014859	  0.029570	  0.345103	  0.048001	  0.120593	  0.222962	  0.415068	  0.046004	
1.782	  0.074430	  0.110521	  0.541121	  0.397506	  0.442365	  0.095545	  0.101736	  0.104053	  0.014602	  0.029129	  0.343985	  0.048531	  0.121856	  0.221721	  0.408967	  0.046522	
1.7825	  0.074615	  0.110429	  0.543260	  0.393657	  0.439453	  0.094499	  0.100743	  0.103722	  0.014359	  0.028701	  0.342884	  0.049067	  0.123131	  0.220488	  0.402980	  0.047053	
1.783	  0.074802	  0.110341	  0.545409	  0.389824	  0.436555	  0.093474	  0.099752	  0.103397	  0.014131	  0.028287	  0.341798	  0.049608	  0.124416	  0.219265	  0.397106	  0.047597	
1.7835	  0.074990	  0.110258	  0.547567	  0.386005	  0.433673	  0.092469	  0.098764	  0.103077	  0.013916	  0.027887	  0.340730	  0.050153	  0.125711	  0.218052	  0.391348	  0.048154	
1.784	  0.075180	  0.110178	  0.549734	  0.382201	  0.430809	  0.091484	  0.097778	  0.102764	  0.013716	  0.027501	  0.339678	  0.050704	  0.127017	  0.216850	  0.385706	  0.048723	
1.7845	  0.075370	  0.110103	  0.551908	  0.378414	  0.427966	  0.090518	  0.096796	  0.102456	  0.013530	  0.027129	  0.338645	  0.051260	  0.128333	  0.215659	  0.380180	  0.049304	
1.785	  0.075562	  0.110030	  0.554088	  0.374643	  0.425145	  0.089571	  0.095818	  0.102155	  0.013358	  0.026769	  0.337630	  0.051821	  0.129658	  0.214479	  0.374772	  0.049897	
1.7855	  0.075754	  0.109961	  0.556272	  0.370890	  0.422349	  0.088643	  0.094843	  0.101860	  0.013199	  0.026423	  0.336633	  0.052386	  0.130993	  0.213312	  0.369482	  0.050501	
1.786	  0.075945	  0.109894	  0.558459	  0.367155	  0.419580	  0.087732	  0.093873	  0.101572	  0.013055	  0.026090	  0.335654	  0.052956	  0.132337	  0.212158	  0.364309	  0.051116	
1.7865	  0.076137	  0.109831	  0.560647	  0.363438	  0.416840	  0.086840	  0.092907	  0.101291	  0.012924	  0.025771	  0.334695	  0.053530	  0.133690	  0.211018	  0.359255	  0.051742	
1.787	  0.076327	  0.109769	  0.562836	  0.359740	  0.414130	  0.085965	  0.091946	  0.101016	  0.012807	  0.025463	  0.333755	  0.054109	  0.135052	  0.209892	  0.354319	  0.052377	
1.7875	  0.076517	  0.109710	  0.565022	  0.356061	  0.411453	  0.085107	  0.090989	  0.100749	  0.012703	  0.025169	  0.332834	  0.054692	  0.136422	  0.208780	  0.349502	  0.053023	
1.788	  0.076704	  0.109653	  0.567204	  0.352402	  0.408810	  0.084265	  0.090038	  0.100489	  0.012612	  0.024887	  0.331932	  0.055280	  0.137800	  0.207684	  0.344804	  0.053677	
1.7885	  0.076890	  0.109597	  0.569380	  0.348762	  0.406204	  0.083439	  0.089093	  0.100236	  0.012535	  0.024617	  0.331050	  0.055871	  0.139186	  0.206603	  0.340225	  0.054341	
1.789	  0.077073	  0.109542	  0.571548	  0.345143	  0.403635	  0.082629	  0.088154	  0.099990	  0.012471	  0.024359	  0.330188	  0.056466	  0.140579	  0.205540	  0.335765	  0.055014	
1.7895	  0.077254	  0.109488	  0.573707	  0.341544	  0.401106	  0.081833	  0.087220	  0.099752	  0.012421	  0.024114	  0.329345	  0.057065	  0.141978	  0.204493	  0.331424	  0.055694	
1.79	  0.077431	  0.109435	  0.575853	  0.337967	  0.398618	  0.081053	  0.086293	  0.099521	  0.012383	  0.023880	  0.328521	  0.057667	  0.143384	  0.203464	  0.327201	  0.056383	
1.7905	  0.077605	  0.109382	  0.577986	  0.334411	  0.396172	  0.080286	  0.085373	  0.099297	  0.012358	  0.023658	  0.327717	  0.058273	  0.144796	  0.202453	  0.323098	  0.057079	
